<svg xmlns="http://www.w3.org/2000/svg" viewBox="0 0 170 230" width="170" height="230">
  <rect x="0" y="0" width="170" height="230" fill="#000000"/>
<rect x="80" y="0" width="10" height="10" fill="#FFFFFF"/>
<rect x="80" y="10" width="10" height="10" fill="#FFFFFF"/>
<rect x="80" y="20" width="10" height="10" fill="#FFFFFF"/>
<rect x="70" y="30" width="10" height="10" fill="#FFFFFF"/>
<rect x="80" y="30" width="10" height="10" fill="#FFFFFF"/>
<rect x="90" y="30" width="10" height="10" fill="#FFFFFF"/>
<rect x="60" y="40" width="10" height="10" fill="#FFFFFF"/>
<rect x="70" y="40" width="10" height="10" fill="#FFFFFF"/>
<rect x="80" y="40" width="10" height="10" fill="#FFFFFF"/>
<rect x="90" y="40" width="10" height="10" fill="#FFFFFF"/>
<rect x="100" y="40" width="10" height="10" fill="#FFFFFF"/>
<rect x="50" y="50" width="10" height="10" fill="#FFFFFF"/>
<rect x="60" y="50" width="10" height="10" fill="#FFFFFF"/>
<rect x="70" y="50" width="10" height="10" fill="#FFFFFF"/>
<rect x="80" y="50" width="10" height="10" fill="#FFFFFF"/>
<rect x="90" y="50" width="10" height="10" fill="#FFFFFF"/>
<rect x="100" y="50" width="10" height="10" fill="#FFFFFF"/>
<rect x="110" y="50" width="10" height="10" fill="#FFFFFF"/>
<rect x="40" y="60" width="10" height="10" fill="#FFFFFF"/>
<rect x="50" y="60" width="10" height="10" fill="#FFFFFF"/>
<rect x="60" y="60" width="10" height="10" fill="#FFFFFF"/>
<rect x="70" y="60" width="10" height="10" fill="#FFFFFF"/>
<rect x="80" y="60" width="10" height="10" fill="#FFFFFF"/>
<rect x="90" y="60" width="10" height="10" fill="#FFFFFF"/>
<rect x="100" y="60" width="10" height="10" fill="#FFFFFF"/>
<rect x="110" y="60" width="10" height="10" fill="#FFFFFF"/>
<rect x="120" y="60" width="10" height="10" fill="#FFFFFF"/>
<rect x="30" y="70" width="10" height="10" fill="#FFFFFF"/>
<rect x="40" y="70" width="10" height="10" fill="#FFFFFF"/>
<rect x="50" y="70" width="10" height="10" fill="#FFFFFF"/>
<rect x="60" y="70" width="10" height="10" fill="#FFFFFF"/>
<rect x="70" y="70" width="10" height="10" fill="#FFFFFF"/>
<rect x="80" y="70" width="10" height="10" fill="#FFFFFF"/>
<rect x="90" y="70" width="10" height="10" fill="#FFFFFF"/>
<rect x="100" y="70" width="10" height="10" fill="#FFFFFF"/>
<rect x="110" y="70" width="10" height="10" fill="#FFFFFF"/>
<rect x="120" y="70" width="10" height="10" fill="#FFFFFF"/>
<rect x="130" y="70" width="10" height="10" fill="#FFFFFF"/>
<rect x="20" y="80" width="10" height="10" fill="#FFFFFF"/>
<rect x="30" y="80" width="10" height="10" fill="#FFFFFF"/>
<rect x="40" y="80" width="10" height="10" fill="#FFFFFF"/>
<rect x="50" y="80" width="10" height="10" fill="#FFFFFF"/>
<rect x="60" y="80" width="10" height="10" fill="#FFFFFF"/>
<rect x="70" y="80" width="10" height="10" fill="#FFFFFF"/>
<rect x="80" y="80" width="10" height="10" fill="#FFFFFF"/>
<rect x="90" y="80" width="10" height="10" fill="#FFFFFF"/>
<rect x="100" y="80" width="10" height="10" fill="#FFFFFF"/>
<rect x="110" y="80" width="10" height="10" fill="#FFFFFF"/>
<rect x="120" y="80" width="10" height="10" fill="#FFFFFF"/>
<rect x="130" y="80" width="10" height="10" fill="#FFFFFF"/>
<rect x="140" y="80" width="10" height="10" fill="#FFFFFF"/>
<rect x="20" y="90" width="10" height="10" fill="#F5E6C8"/>
<rect x="30" y="90" width="10" height="10" fill="#F5E6C8"/>
<rect x="40" y="90" width="10" height="10" fill="#F5E6C8"/>
<rect x="50" y="90" width="10" height="10" fill="#F5E6C8"/>
<rect x="60" y="90" width="10" height="10" fill="#F5E6C8"/>
<rect x="70" y="90" width="10" height="10" fill="#F5E6C8"/>
<rect x="80" y="90" width="10" height="10" fill="#F5E6C8"/>
<rect x="90" y="90" width="10" height="10" fill="#F5E6C8"/>
<rect x="100" y="90" width="10" height="10" fill="#F5E6C8"/>
<rect x="110" y="90" width="10" height="10" fill="#F5E6C8"/>
<rect x="120" y="90" width="10" height="10" fill="#F5E6C8"/>
<rect x="130" y="90" width="10" height="10" fill="#F5E6C8"/>
<rect x="140" y="90" width="10" height="10" fill="#F5E6C8"/>
<rect x="10" y="100" width="10" height="10" fill="#F8F8F8"/>
<rect x="20" y="100" width="10" height="10" fill="#F8F8F8"/>
<rect x="30" y="100" width="10" height="10" fill="#F8F8F8"/>
<rect x="40" y="100" width="10" height="10" fill="#F8F8F8"/>
<rect x="50" y="100" width="10" height="10" fill="#F8F8F8"/>
<rect x="60" y="100" width="10" height="10" fill="#F8F8F8"/>
<rect x="70" y="100" width="10" height="10" fill="#F8F8F8"/>
<rect x="80" y="100" width="10" height="10" fill="#F8F8F8"/>
<rect x="90" y="100" width="10" height="10" fill="#F8F8F8"/>
<rect x="100" y="100" width="10" height="10" fill="#F8F8F8"/>
<rect x="110" y="100" width="10" height="10" fill="#F8F8F8"/>
<rect x="120" y="100" width="10" height="10" fill="#F8F8F8"/>
<rect x="130" y="100" width="10" height="10" fill="#F8F8F8"/>
<rect x="140" y="100" width="10" height="10" fill="#F8F8F8"/>
<rect x="150" y="100" width="10" height="10" fill="#F8F8F8"/>
<rect x="10" y="110" width="10" height="10" fill="#F8F8F8"/>
<rect x="20" y="110" width="10" height="10" fill="#F8F8F8"/>
<rect x="30" y="110" width="10" height="10" fill="#F0F0EC"/>
<rect x="40" y="110" width="10" height="10" fill="#F0F0EC"/>
<rect x="50" y="110" width="10" height="10" fill="#F0F0EC"/>
<rect x="60" y="110" width="10" height="10" fill="#F0F0EC"/>
<rect x="70" y="110" width="10" height="10" fill="#F0F0EC"/>
<rect x="80" y="110" width="10" height="10" fill="#F0F0EC"/>
<rect x="90" y="110" width="10" height="10" fill="#F0F0EC"/>
<rect x="100" y="110" width="10" height="10" fill="#F0F0EC"/>
<rect x="110" y="110" width="10" height="10" fill="#F0F0EC"/>
<rect x="120" y="110" width="10" height="10" fill="#F0F0EC"/>
<rect x="130" y="110" width="10" height="10" fill="#F0F0EC"/>
<rect x="140" y="110" width="10" height="10" fill="#F8F8F8"/>
<rect x="150" y="110" width="10" height="10" fill="#F8F8F8"/>
<rect x="10" y="120" width="10" height="10" fill="#F8F8F8"/>
<rect x="20" y="120" width="10" height="10" fill="#F0F0EC"/>
<rect x="30" y="120" width="10" height="10" fill="#F0F0EC"/>
<rect x="40" y="120" width="10" height="10" fill="#FFFFFF"/>
<rect x="50" y="120" width="10" height="10" fill="#FFFFFF"/>
<rect x="60" y="120" width="10" height="10" fill="#FFFFFF"/>
<rect x="70" y="120" width="10" height="10" fill="#FFFFFF"/>
<rect x="80" y="120" width="10" height="10" fill="#FFFFFF"/>
<rect x="90" y="120" width="10" height="10" fill="#FFFFFF"/>
<rect x="100" y="120" width="10" height="10" fill="#FFFFFF"/>
<rect x="110" y="120" width="10" height="10" fill="#FFFFFF"/>
<rect x="120" y="120" width="10" height="10" fill="#FFFFFF"/>
<rect x="130" y="120" width="10" height="10" fill="#F0F0EC"/>
<rect x="140" y="120" width="10" height="10" fill="#F0F0EC"/>
<rect x="150" y="120" width="10" height="10" fill="#F8F8F8"/>
<rect x="10" y="130" width="10" height="10" fill="#F8F8F8"/>
<rect x="20" y="130" width="10" height="10" fill="#F8F8F8"/>
<rect x="30" y="130" width="10" height="10" fill="#F0F0EC"/>
<rect x="40" y="130" width="10" height="10" fill="#F0F0EC"/>
<rect x="50" y="130" width="10" height="10" fill="#F0F0EC"/>
<rect x="60" y="130" width="10" height="10" fill="#F0F0EC"/>
<rect x="70" y="130" width="10" height="10" fill="#F0F0EC"/>
<rect x="80" y="130" width="10" height="10" fill="#F0F0EC"/>
<rect x="90" y="130" width="10" height="10" fill="#F0F0EC"/>
<rect x="100" y="130" width="10" height="10" fill="#F0F0EC"/>
<rect x="110" y="130" width="10" height="10" fill="#F0F0EC"/>
<rect x="120" y="130" width="10" height="10" fill="#F0F0EC"/>
<rect x="130" y="130" width="10" height="10" fill="#F0F0EC"/>
<rect x="140" y="130" width="10" height="10" fill="#F8F8F8"/>
<rect x="150" y="130" width="10" height="10" fill="#F8F8F8"/>
<rect x="10" y="140" width="10" height="10" fill="#F8F8F8"/>
<rect x="20" y="140" width="10" height="10" fill="#F0F0EC"/>
<rect x="30" y="140" width="10" height="10" fill="#F0F0EC"/>
<rect x="40" y="140" width="10" height="10" fill="#FFFFFF"/>
<rect x="50" y="140" width="10" height="10" fill="#FFFFFF"/>
<rect x="60" y="140" width="10" height="10" fill="#F0F0EC"/>
<rect x="70" y="140" width="10" height="10" fill="#F0F0EC"/>
<rect x="90" y="140" width="10" height="10" fill="#F0F0EC"/>
<rect x="100" y="140" width="10" height="10" fill="#F0F0EC"/>
<rect x="110" y="140" width="10" height="10" fill="#FFFFFF"/>
<rect x="120" y="140" width="10" height="10" fill="#FFFFFF"/>
<rect x="130" y="140" width="10" height="10" fill="#F0F0EC"/>
<rect x="140" y="140" width="10" height="10" fill="#F0F0EC"/>
<rect x="150" y="140" width="10" height="10" fill="#F8F8F8"/>
<rect x="10" y="150" width="10" height="10" fill="#F8F8F8"/>
<rect x="20" y="150" width="10" height="10" fill="#F8F8F8"/>
<rect x="30" y="150" width="10" height="10" fill="#F0F0EC"/>
<rect x="40" y="150" width="10" height="10" fill="#F0F0EC"/>
<rect x="50" y="150" width="10" height="10" fill="#F0F0EC"/>
<rect x="60" y="150" width="10" height="10" fill="#F0F0EC"/>
<rect x="70" y="150" width="10" height="10" fill="#F0F0EC"/>
<rect x="80" y="150" width="10" height="10" fill="#F0F0EC"/>
<rect x="90" y="150" width="10" height="10" fill="#F0F0EC"/>
<rect x="100" y="150" width="10" height="10" fill="#F0F0EC"/>
<rect x="110" y="150" width="10" height="10" fill="#F0F0EC"/>
<rect x="120" y="150" width="10" height="10" fill="#F0F0EC"/>
<rect x="130" y="150" width="10" height="10" fill="#F0F0EC"/>
<rect x="140" y="150" width="10" height="10" fill="#F8F8F8"/>
<rect x="150" y="150" width="10" height="10" fill="#F8F8F8"/>
<rect x="10" y="160" width="10" height="10" fill="#F8F8F8"/>
<rect x="20" y="160" width="10" height="10" fill="#F0F0EC"/>
<rect x="30" y="160" width="10" height="10" fill="#F0F0EC"/>
<rect x="40" y="160" width="10" height="10" fill="#FFFFFF"/>
<rect x="50" y="160" width="10" height="10" fill="#FFFFFF"/>
<rect x="60" y="160" width="10" height="10" fill="#F0F0EC"/>
<rect x="70" y="160" width="10" height="10" fill="#F0F0EC"/>
<rect x="90" y="160" width="10" height="10" fill="#F0F0EC"/>
<rect x="100" y="160" width="10" height="10" fill="#F0F0EC"/>
<rect x="110" y="160" width="10" height="10" fill="#FFFFFF"/>
<rect x="120" y="160" width="10" height="10" fill="#FFFFFF"/>
<rect x="130" y="160" width="10" height="10" fill="#F0F0EC"/>
<rect x="140" y="160" width="10" height="10" fill="#F0F0EC"/>
<rect x="150" y="160" width="10" height="10" fill="#F8F8F8"/>
<rect x="10" y="170" width="10" height="10" fill="#F8F8F8"/>
<rect x="20" y="170" width="10" height="10" fill="#F8F8F8"/>
<rect x="30" y="170" width="10" height="10" fill="#F0F0EC"/>
<rect x="40" y="170" width="10" height="10" fill="#F0F0EC"/>
<rect x="50" y="170" width="10" height="10" fill="#F0F0EC"/>
<rect x="60" y="170" width="10" height="10" fill="#F0F0EC"/>
<rect x="70" y="170" width="10" height="10" fill="#F0F0EC"/>
<rect x="80" y="170" width="10" height="10" fill="#F0F0EC"/>
<rect x="90" y="170" width="10" height="10" fill="#F0F0EC"/>
<rect x="100" y="170" width="10" height="10" fill="#F0F0EC"/>
<rect x="110" y="170" width="10" height="10" fill="#F0F0EC"/>
<rect x="120" y="170" width="10" height="10" fill="#F0F0EC"/>
<rect x="130" y="170" width="10" height="10" fill="#F0F0EC"/>
<rect x="140" y="170" width="10" height="10" fill="#F8F8F8"/>
<rect x="150" y="170" width="10" height="10" fill="#F8F8F8"/>
<rect x="10" y="180" width="10" height="10" fill="#F8F8F8"/>
<rect x="20" y="180" width="10" height="10" fill="#F8F8F8"/>
<rect x="30" y="180" width="10" height="10" fill="#F0F0EC"/>
<rect x="40" y="180" width="10" height="10" fill="#F0F0EC"/>
<rect x="50" y="180" width="10" height="10" fill="#FFFFFF"/>
<rect x="60" y="180" width="10" height="10" fill="#FFFFFF"/>
<rect x="70" y="180" width="10" height="10" fill="#F0F0EC"/>
<rect x="90" y="180" width="10" height="10" fill="#F0F0EC"/>
<rect x="100" y="180" width="10" height="10" fill="#FFFFFF"/>
<rect x="110" y="180" width="10" height="10" fill="#FFFFFF"/>
<rect x="120" y="180" width="10" height="10" fill="#F0F0EC"/>
<rect x="130" y="180" width="10" height="10" fill="#F0F0EC"/>
<rect x="140" y="180" width="10" height="10" fill="#F8F8F8"/>
<rect x="150" y="180" width="10" height="10" fill="#F8F8F8"/>
<rect x="10" y="190" width="10" height="10" fill="#F8F8F8"/>
<rect x="20" y="190" width="10" height="10" fill="#F8F8F8"/>
<rect x="30" y="190" width="10" height="10" fill="#F8F8F8"/>
<rect x="40" y="190" width="10" height="10" fill="#F8F8F8"/>
<rect x="50" y="190" width="10" height="10" fill="#F8F8F8"/>
<rect x="60" y="190" width="10" height="10" fill="#F8F8F8"/>
<rect x="70" y="190" width="10" height="10" fill="#F8F8F8"/>
<rect x="80" y="190" width="10" height="10" fill="#F8F8F8"/>
<rect x="90" y="190" width="10" height="10" fill="#F8F8F8"/>
<rect x="100" y="190" width="10" height="10" fill="#F8F8F8"/>
<rect x="110" y="190" width="10" height="10" fill="#F8F8F8"/>
<rect x="120" y="190" width="10" height="10" fill="#F8F8F8"/>
<rect x="130" y="190" width="10" height="10" fill="#F8F8F8"/>
<rect x="140" y="190" width="10" height="10" fill="#F8F8F8"/>
<rect x="150" y="190" width="10" height="10" fill="#F8F8F8"/>
<rect x="0" y="200" width="10" height="10" fill="#F8F8F8"/>
<rect x="10" y="200" width="10" height="10" fill="#F8F8F8"/>
<rect x="20" y="200" width="10" height="10" fill="#F8F8F8"/>
<rect x="30" y="200" width="10" height="10" fill="#F8F8F8"/>
<rect x="40" y="200" width="10" height="10" fill="#F8F8F8"/>
<rect x="50" y="200" width="10" height="10" fill="#F8F8F8"/>
<rect x="60" y="200" width="10" height="10" fill="#F8F8F8"/>
<rect x="70" y="200" width="10" height="10" fill="#F8F8F8"/>
<rect x="80" y="200" width="10" height="10" fill="#F8F8F8"/>
<rect x="90" y="200" width="10" height="10" fill="#F8F8F8"/>
<rect x="100" y="200" width="10" height="10" fill="#F8F8F8"/>
<rect x="110" y="200" width="10" height="10" fill="#F8F8F8"/>
<rect x="120" y="200" width="10" height="10" fill="#F8F8F8"/>
<rect x="130" y="200" width="10" height="10" fill="#F8F8F8"/>
<rect x="140" y="200" width="10" height="10" fill="#F8F8F8"/>
<rect x="150" y="200" width="10" height="10" fill="#F8F8F8"/>
<rect x="160" y="200" width="10" height="10" fill="#F8F8F8"/>
<rect x="0" y="210" width="10" height="10" fill="#F8F8F8"/>
<rect x="10" y="210" width="10" height="10" fill="#F8F8F8"/>
<rect x="20" y="210" width="10" height="10" fill="#F8F8F8"/>
<rect x="30" y="210" width="10" height="10" fill="#F8F8F8"/>
<rect x="40" y="210" width="10" height="10" fill="#F8F8F8"/>
<rect x="50" y="210" width="10" height="10" fill="#F8F8F8"/>
<rect x="60" y="210" width="10" height="10" fill="#F8F8F8"/>
<rect x="70" y="210" width="10" height="10" fill="#F8F8F8"/>
<rect x="80" y="210" width="10" height="10" fill="#F8F8F8"/>
<rect x="90" y="210" width="10" height="10" fill="#F8F8F8"/>
<rect x="100" y="210" width="10" height="10" fill="#F8F8F8"/>
<rect x="110" y="210" width="10" height="10" fill="#F8F8F8"/>
<rect x="120" y="210" width="10" height="10" fill="#F8F8F8"/>
<rect x="130" y="210" width="10" height="10" fill="#F8F8F8"/>
<rect x="140" y="210" width="10" height="10" fill="#F8F8F8"/>
<rect x="150" y="210" width="10" height="10" fill="#F8F8F8"/>
<rect x="160" y="210" width="10" height="10" fill="#F8F8F8"/>
<rect x="0" y="220" width="10" height="10" fill="#F8F8F8"/>
<rect x="10" y="220" width="10" height="10" fill="#F8F8F8"/>
<rect x="20" y="220" width="10" height="10" fill="#F8F8F8"/>
<rect x="30" y="220" width="10" height="10" fill="#F8F8F8"/>
<rect x="40" y="220" width="10" height="10" fill="#F8F8F8"/>
<rect x="50" y="220" width="10" height="10" fill="#F8F8F8"/>
<rect x="60" y="220" width="10" height="10" fill="#F8F8F8"/>
<rect x="70" y="220" width="10" height="10" fill="#F8F8F8"/>
<rect x="80" y="220" width="10" height="10" fill="#F8F8F8"/>
<rect x="90" y="220" width="10" height="10" fill="#F8F8F8"/>
<rect x="100" y="220" width="10" height="10" fill="#F8F8F8"/>
<rect x="110" y="220" width="10" height="10" fill="#F8F8F8"/>
<rect x="120" y="220" width="10" height="10" fill="#F8F8F8"/>
<rect x="130" y="220" width="10" height="10" fill="#F8F8F8"/>
<rect x="140" y="220" width="10" height="10" fill="#F8F8F8"/>
<rect x="150" y="220" width="10" height="10" fill="#F8F8F8"/>
<rect x="160" y="220" width="10" height="10" fill="#F8F8F8"/>
</svg>